Patient4_TMGait_0pt3_01_right_03_EMG.mot
version=1
nRows=40
nColumns=33
inDegrees=no
endheader
time	1LAddLong	2LGlutMax	3LGlutMed	4LIliopsoas	5LSemiMemb	6LBicFemLong	7LRecFem	8LVastMed	9LVastLat	10LGasMed	11LTibAnt	12lTibPost	13LPeroneusLong	14LSol	15LExtDigLong	16LFlexDigLong	17RAddLong	18RGlutMax	19RGlutMed	20RIliopsoas	21RSemiMemb	22RBicFemLong	23RRecFem	24RVastMed	25RVastLat	26RGasMed	27RTibAnt	28RTibPost	29RPeroneusLong	30RSol	31RExtDigLong	32RFlexDigLong
5.31	0.001984	-0.062714	-0.050812	0.010223	0.023041	-0.17532	-0.007172	-0.002289	-0.036163	-0.031433	-0.052185	-0.024719	0.11429	0.085144	0.061493	0.024261	0.005951	-0.02655	-0.018616	-0.056763	0.039978	0.027618	-0.023499	-0.11597	-0.065765	0.009918	-1.1667	-0.007935	0.3978	-0.19272	-0.009766	-0.023499
5.311	0.02243	-0.01297	-0.03952	0.000763	0.012512	0.013123	-0.042725	0.001221	-0.0177	-0.018005	-0.075226	-0.019684	0.067749	0.067291	-0.009155	0.004425	-0.010834	-0.018005	-0.017548	-0.078278	0.067291	0.1004	-0.28519	-0.041199	0.051727	0.00473	-1.3214	-0.004578	0.82825	-0.082855	-0.000458	-0.026093
5.312	0.031281	0.000305	0.067596	0.018311	0.002441	0.11078	-0.081329	0.003815	0.08606	-0.013428	-0.24506	-0.011749	0.054016	0.009155	0.29724	0.010986	-0.006256	-0.036316	0.002594	-0.08606	0.079041	0.089874	-0.33264	-0.077362	0.12451	0.003815	-0.78461	-0.002594	0.14023	-0.081787	-0.001068	-0.019836
5.313	0.036926	-0.042267	0.071259	0.018768	0.072327	0.070953	-0.10513	0.007782	0.085449	0.001678	-0.071259	0.000153	-0.010986	0.022736	-0.34393	0.007324	0.013275	-0.088043	0.092926	-0.1207	0.060883	0.032959	-0.19562	-0.041656	0.11795	-0.007629	-0.083618	-0.009308	0.11429	0.039673	-0.000916	-0.028381
5.314	0.030823	-0.067596	0.042267	0.017548	0.068207	0.11627	-0.1268	0.016022	0.087128	-0.019836	0.057983	0.010071	-0.0354	0.14328	-0.087128	0.007324	0.01297	-0.062866	0.094604	-0.039673	0.04303	-0.003967	-0.073853	0.059662	0.057831	-0.001831	0.12207	-0.008087	-0.087128	-0.037384	0.001984	-0.026855
5.315	0.020905	-0.022583	0.050507	0.015411	0.026855	0.095978	-0.177	0.018616	0.013885	-0.045929	0.022278	0.016479	-0.00824	0.20523	-0.074921	0.010376	0.016022	-0.043793	0.034943	-0.041809	0.048218	-0.013123	-0.051422	0.094604	0.010376	0.003967	0.13458	-0.00946	-0.37231	-0.086823	0.000763	-0.027771
5.316	0.009918	-0.019073	0.037079	0.003204	0.015259	0.092316	-0.12207	0.033875	-0.03891	-0.02243	-0.061035	0.015717	-0.009155	0.15488	-0.26032	0.005035	0.005646	-0.024719	0.002747	-0.018463	0.055237	-0.018005	-0.11017	0.12802	0.070801	0.004272	0.58411	-0.006714	-0.63461	-0.10208	0.001984	-0.025787
5.317	0.003967	-0.008392	0.023499	0.002594	0.004578	0.063782	-0.06546	0.036469	-0.054169	0.008392	-0.096741	0.016479	-0.00412	0.081787	-0.40054	0.002441	0.010834	-0.079346	0.000458	0.12085	0.020142	-0.008545	-0.066986	0.094757	0.047913	0.013123	0.90515	-0.007019	-0.33478	-0.13107	0.000153	-0.021057
5.318	0.026703	-0.015869	0.01297	0.007324	-0.019379	0.1712	-0.034943	0.023041	-0.059357	0.024414	-0.097351	0.023346	0.058746	-0.15381	-0.37399	-0.014801	0.008545	-0.14801	0.037842	0.18112	0.022278	-0.031128	-0.087738	0.051117	0.032654	0.015564	0.6485	-0.003357	-0.35858	-0.095978	-0.004272	-0.028992
5.319	0.032501	-0.003967	0.005798	0.002136	0.006104	0.27268	-0.028076	0.006256	-0.028687	0.018768	-0.032501	0.03006	0.069885	-0.2385	-0.23941	0.000305	0.011597	-0.099792	0.018921	0.12024	0.029755	-0.042114	-0.097351	-0.019989	0.019684	-0.013428	-0.5661	-0.010071	-0.81512	0.16846	-0.001678	-0.022278
5.32	0.021362	-0.042267	-0.063019	0.006104	0.061493	0.25711	-0.16922	0.008392	0.12665	0.001221	0.06012	0.039063	0.047302	-0.069885	-0.10773	0.008698	0.007324	-0.112	0.039825	0.14923	0.016327	-0.022125	-0.086365	-0.032349	-0.041656	-0.017395	-1.4056	-0.008087	-0.084991	0.28595	0.000458	-0.022583
5.321	0.015106	-0.077362	-0.093994	0.015869	0.047913	0.00351	-0.18143	0.018463	0.21347	0.018616	0.048065	0.034637	-0.01297	-0.031128	0.015259	0.014496	0.002136	-0.072174	0.046234	0.14725	0.004272	0.000763	-0.16007	-0.11887	-0.052643	-0.019531	-0.53085	-0.009308	0.96069	0.1915	0.001221	-0.028992
5.322	0.01236	-0.065918	-0.15747	0.018768	0.027313	-0.17166	-0.18799	0.003967	0.19852	0.020447	-0.086975	0.040741	-0.031586	-0.10696	0.089569	0.002441	-0.001068	-0.044098	-0.019226	0.084381	0.002441	0.008545	-0.22614	-0.065918	0.055542	-0.003662	0.2214	-0.004272	0.15228	-0.020752	-0.002136	-0.026855
5.323	-0.042267	-0.058136	-0.15823	0.019379	-0.005798	-0.057831	-0.11185	-0.003357	0.20096	0.00824	-0.30167	0.048218	-0.003815	-0.049591	-0.10101	0.000153	-0.015564	-0.001984	0.005188	0.010986	0.02594	-0.037537	-0.1474	0.11047	0.13138	0.005188	0.60821	-0.004578	0.067444	-0.16541	0.000153	-0.021362
5.324	0.080872	-0.056305	-0.078125	0.009155	-0.024719	-0.071716	-0.08728	-0.016174	0.23499	-0.0177	-0.08606	0.054169	0.025635	-0.02243	0.33905	-0.023804	-0.001221	-0.01236	0.09613	-0.007935	0.001373	-0.054169	-0.034332	0.12207	0.10788	0.00412	0.784	-0.001373	0.20844	-0.15427	-0.000763	-0.021973
5.325	0.000153	-0.083923	-0.092468	0.014648	0	-0.32074	0.030365	-0.022583	0.083466	-0.028534	0.1889	0.055084	0.037994	-0.021057	0.31494	-0.001526	0.008087	-0.018158	0.18249	-0.019379	0.021057	-0.005493	-0.01358	0.055847	0.041809	-0.00473	0.20203	-0.007172	0.38238	-0.14587	0.000305	-0.024872
5.326	-0.024109	-0.06546	-0.082397	0.003204	0.050812	-0.22034	0.018921	-0.033264	-0.10223	-0.017548	0.22659	0.051422	0.030212	-0.094604	0.010071	-0.004272	0.003662	-0.018005	0.18036	-0.069427	0.042572	-0.046997	0.10773	-0.060272	-0.044098	-0.015106	0.13306	-0.006256	0.11047	-0.13031	-0.003052	-0.025635
5.327	-0.00885	-0.033417	-0.053711	-0.010376	0.056152	-0.080414	0.052032	-0.040436	-0.20813	0.012207	0.1265	0.054169	-0.05127	-0.065002	-0.13763	-0.015106	0.016174	-0.024567	0.095978	-0.11704	0.027618	0.047455	0.24994	-0.15732	-0.18021	-0.010681	-0.30579	-0.004578	-0.083618	-0.090637	-0.001221	-0.016327
5.328	-0.007477	-0.037537	-0.045013	0.004272	0.014496	0.004425	0.10025	-0.028076	-0.16449	0.006561	0.029755	0.049133	0.000763	0.037689	0.18906	-0.008545	0.005951	-0.038147	0.074921	-0.033264	0.025635	0.050659	0.32593	-0.097809	-0.28015	0.016022	-0.43289	-0.004883	1.0287	-0.30945	-0.00061	-0.011749
5.329	-0.014038	-0.022278	0.000153	0.009155	-0.021362	0.062866	0.077972	-0.008545	-0.13229	-0.023193	-0.15274	0.051422	0.10803	0.076141	0.75913	-0.005341	-0.017853	-0.030212	0.070648	0.016327	0.045166	0.17425	0.059662	-0.033722	-0.29633	0.009003	0.4184	-0.003662	0.054474	-0.26489	-0.001831	-0.019684
5.33	-0.011444	-0.068054	-0.030365	0.016479	-0.028229	-0.035553	0.047913	-0.011597	-0.021667	-0.014954	0.027313	0.046387	0.048981	0.10681	-0.15945	-0.018463	-0.032349	-0.029449	0.06424	0.037689	0.043945	0.35233	-0.40802	-0.053864	-0.18112	0.006256	0.85846	-0.003357	-0.65994	-0.16464	-0.001678	-0.022278
5.331	-0.00885	-0.030823	0.001678	0.000305	-0.005951	0.080261	-0.088501	-0.010223	0.15518	0.007172	0.10056	0.047913	-0.06897	0.066528	-0.10742	-0.023651	-0.017548	-0.044556	0.016174	0.06546	0.054016	0.28015	-0.41306	0.13336	0.020905	0.000763	0.44144	-0.001678	-0.21851	-0.044098	0.000305	-0.019531
5.332	-0.010223	-0.084229	0.003052	0.016174	0.014954	0.14816	-0.19821	-0.012665	0.29739	-0.007324	-0.043793	0.04837	0.013275	-0.043182	-0.12192	-0.005646	-0.002899	-0.023499	-0.001068	0.034485	0.036163	0.16159	-0.22659	0.24612	0.034485	0.018463	-0.58243	-0.00061	0.20798	-0.016022	-0.004883	-0.018921
5.333	-0.009918	-0.066223	0.035553	0.021057	0.029144	0.20096	-0.20126	0.005188	0.20462	-0.003967	-0.00473	0.041199	0.057068	-0.067596	-0.38574	-0.010376	0.020294	0.05188	-0.056152	-0.0383	0.029144	-0.024109	0.052338	0.20996	-0.083313	0.002747	-0.34821	-0.007477	0.27466	0.000916	-0.001678	-0.018921
5.334	-0.00824	-0.059052	0.009613	0.015717	-0.06897	0.17731	-0.25253	0.016022	0.099792	0.034637	0.11078	0.041962	-0.032806	0.036774	-0.10407	-0.020599	0.004883	-0.015411	0.034027	-0.05722	0.043793	0.01709	-0.20523	0.023956	-0.042572	-0.010376	0.56976	-0.007935	-0.57526	0.17975	-0.003052	-0.015259
5.335	-0.01709	-0.043182	-0.033875	0.005341	-0.059052	0.13275	-0.2536	0.034637	0.080414	0.044556	-0.077667	0.043945	-0.037689	-0.017548	0.7045	-0.013885	-0.003357	-0.018768	0.065155	-0.10193	0.084686	0.045471	-0.28641	-0.001068	-0.005035	-0.010986	0.64392	-0.003967	-1.2773	0.22598	0.001221	-0.016174
5.336	-0.022278	0.015106	-0.005798	0.005798	-0.1059	0.18463	-0.17639	0.049133	0.11566	0.016785	-0.15442	0.04303	0.006409	-0.001068	-0.12436	-0.002136	-0.008545	-0.009003	0.11627	-0.095367	0.066071	-0.1294	-0.25223	0.022125	0.041199	-0.00946	-0.17319	-0.001984	-0.56397	0.21851	-0.00061	-0.014801
5.337	-0.015564	0.026245	-0.007629	0.000458	-0.15472	0.14694	-0.13138	0.04303	0.16266	-0.008545	-0.13931	0.037994	0.021362	0.14221	-0.17883	0.011902	0.006409	-0.002747	0.023956	-0.031586	0.023193	-0.1648	-0.21942	-0.032196	0.070648	-0.010834	-1.0834	-0.002747	0.056915	0.19196	-0.002441	-0.01358
5.338	0.006561	0.009308	0.065308	-0.00061	-0.022888	0.015106	-0.049286	0.011597	0.23727	-0.0177	0.11398	0.038757	0.009308	0.17899	0.29053	0.034637	0.010681	0.004578	0.040131	-0.005951	-0.007172	-0.13153	-0.1767	-0.11658	0.021973	-0.000305	-1.3211	-0.000763	1.2038	0.17059	0.002747	-0.002747
5.339	0.02243	-0.003204	-0.043335	0.004272	0.084686	-0.16281	0.08316	-0.002594	0.23193	-0.000458	0.27008	0.028839	0.035706	0.18356	0.1445	0.012665	0.011597	0.003815	0.070038	0.037384	-0.002289	-0.062103	-0.13702	-0.065002	0.065155	-0.009155	-0.54214	-0.001984	0.3685	0.3006	-0.001068	-0.000763
5.34	0.033417	-0.023956	-0.12299	0.03006	0.10208	-0.13184	0.052795	-0.001678	0.21103	0.03067	0.10056	0.027618	-0.024872	0.12589	0.1207	0.018768	-0.007477	-0.029297	0.11185	0.040131	0.024109	-0.085602	-0.22461	0.029602	0.063019	-0.014343	-0.18951	-0.002136	0.35141	0.34973	0.001221	-0.007324
5.341	0.047607	-0.002899	-0.082703	0.025787	0.10925	-0.19943	-0.095367	-0.018005	0.34927	0.022736	0.037537	0.029144	-0.00412	0.077057	-0.12268	0.013428	-0.003967	-0.12528	0.0914	0.025177	-0.00824	-0.086823	-0.21576	-0.04715	0.043945	-0.012054	0.091858	-0.007324	-0.090027	0.16022	-0.001068	-0.009766
5.342	0.04303	-0.032501	-0.088959	0.02243	0.063782	-0.25085	-0.008392	-0.013123	0.20218	-0.02533	-0.069275	0.027008	0.10544	0.093231	-0.26749	0.00473	0.005646	-0.061035	0.027771	-0.023499	-0.012512	-0.024872	-0.41031	-0.094757	0.090332	-0.009308	0.17975	-0.006866	-0.57159	-0.070496	-0.001068	-0.013123
5.343	0.026703	-0.033722	0.087433	-0.000763	0.031433	-0.16922	0.14358	-0.020447	-0.17303	-0.063629	-0.097961	0.024567	0.12009	0.19577	0.012054	0.005951	0.010834	-0.016327	0.014801	-0.06134	-0.026703	0.046844	-0.32761	-0.009918	0.06012	-0.010071	0.21454	-0.000305	-0.48828	-0.03479	0.000763	-0.016174
5.344	0.022278	0.024109	0.03418	-0.005951	0.024109	-0.035553	0.2388	-0.023346	-0.48813	-0.078583	-0.084839	0.019073	0.15091	0.26367	0.62012	-0.010529	0.020599	0.020294	0.003357	-0.10941	-0.018921	0.067749	-0.15442	0.006409	-0.002136	-0.009308	0.42908	-0.007477	0.31525	0.05249	-0.001678	-0.013123
5.345	0.014343	-0.011444	0.01358	-0.001678	0.018463	-0.075531	0.15305	-0.017548	-0.59311	-0.024261	-0.15564	0.021057	0.13947	0.21988	0.1622	-0.03006	0.023804	-0.059662	0.089569	-0.098267	-0.007782	0.081482	-0.070648	-0.016937	-0.025177	-0.018005	0.58624	-0.003662	0.61111	0.26977	-0.000916	-0.019073
5.346	0.017395	-0.02243	0.092316	0.016632	0.021057	-0.009003	0.11551	0.003967	-0.39352	-0.012817	-0.18585	0.019073	0.056915	0.18265	-0.12802	-0.016327	0.02655	-0.08606	0.13504	-0.059357	0.014191	0.040436	-0.10986	-0.037384	-0.016327	-0.021515	0.042267	-0.001984	0.28381	0.14954	-0.000916	-0.022888
5.347	0.020752	-0.041199	0.046082	0.022736	0.031281	0.2066	0.078735	0.029755	-0.23773	0.020447	-0.14618	0.023346	-0.048676	0.1004	-0.7544	-0.027771	0.020752	-0.093231	0.16968	0.020447	0.028687	0.084991	-0.10407	-0.030975	-0.032349	-0.01297	-0.32288	-0.007782	-0.12314	-0.020752	-0.001373	-0.014191
5.348	0.00351	0.001831	0.032196	0.013733	0.010223	0.26169	0.071716	0.040741	-0.18127	0.029449	-0.15518	0.021057	-0.054016	0.086212	0.041351	-0.031891	0.011292	-0.12116	0.11765	0.10666	0.032349	0.12817	-0.1387	-0.046692	-0.015106	0.002289	-0.30716	-0.002747	0.74661	-0.24979	-0.001526	-0.003815
5.349	-0.010071	-0.021057	0.071411	0.027466	-0.033875	0.21881	0.040894	0.034485	-0.13962	-0.009308	-0.045166	0.018768	-0.026245	0.090027	-0.49316	-0.027924	0.014496	-0.094147	0.088043	0.070343	0.048828	0.062408	-0.14847	-0.036469	-0.006714	0.002136	0.7695	-0.002899	-0.036163	-0.32349	0.000153	-0.003662
